<svg xmlns="http://www.w3.org/2000/svg" viewBox="0 0 102 18.36"><g id="Layer_2" data-name="Layer 2"><g id="Barbell"><g id="Barbell-2" data-name="Barbell"><rect x="0.5" y="8.68" width="101" height="1.09" fill="#fd6051" stroke="#fd6051" stroke-miterlimit="10"/><rect x="7.91" y="1.59" width="2.89" height="15.18" fill="#fd6051" stroke="#fd6051" stroke-miterlimit="10" stroke-width="0.5"/><rect x="11.89" y="0.25" width="2.89" height="17.86" fill="#fd6051" stroke="#fd6051" stroke-miterlimit="10" stroke-width="0.5"/><rect x="4.51" y="3.91" width="2.46" height="10.54" fill="#fd6051" stroke="#fd6051" stroke-miterlimit="10" stroke-width="0.5"/><rect x="91.64" y="1.59" width="2.89" height="15.18" transform="translate(186.16 18.36) rotate(180)" fill="#fd6051" stroke="#fd6051" stroke-miterlimit="10" stroke-width="0.5"/><rect x="87.66" y="0.25" width="2.89" height="17.86" transform="translate(178.22 18.36) rotate(180)" fill="#fd6051" stroke="#fd6051" stroke-miterlimit="10" stroke-width="0.5"/><rect x="95.48" y="3.98" width="2.44" height="10.54" transform="translate(193.4 18.51) rotate(180)" fill="#fd6051" stroke="#fd6051" stroke-miterlimit="10" stroke-width="0.5"/></g><g id="Heart"><path d="M44.49,9.76h-.15" fill="none" stroke="#fd6051" stroke-miterlimit="10" stroke-width="0.25"/><path d="M56,4.34,55.9,4.2a3.62,3.62,0,0,0-5.11,0L49,6,47.3,4.2a3.62,3.62,0,0,0-5.11,0l-.14.14a3.62,3.62,0,0,0,0,5.11l.57.57L49,16.44l6.39-6.38.31-.31.11-.12h0L56,9.45A3.62,3.62,0,0,0,56,4.34Z" fill="#fff" stroke="#fd6051" stroke-miterlimit="10" stroke-width="0.25"/><path d="M56.21,4.16,56.08,4a3.87,3.87,0,0,0-5.47,0L49,5.6,47.47,4A3.86,3.86,0,0,0,42,4l-.14.13a3.88,3.88,0,0,0-.11,5.35l.11.12.39.39L49,16.8l6.66-6.66L56,9.86l.11-.11.12-.12.07-.08h0a3.85,3.85,0,0,0-.08-5.39ZM49,16.09,43,10l-.25-.25h0l-.24-.24-.25-.25a3.36,3.36,0,0,1,0-4.75l.13-.14a3.38,3.38,0,0,1,4.76,0L49,6.3,51,4.38a3.37,3.37,0,0,1,4.75,0l.14.14a3.34,3.34,0,0,1,0,4.75Z" fill="#fff" stroke="#fd6051" stroke-miterlimit="10" stroke-width="0.25"/></g><g id="HR_Line" data-name="HR Line"><polygon points="45.2 9.76 45.06 9.85 44.28 10.29 43.73 9.78 42.73 9.77 42.37 9.77 42 9.76 44.08 9.76 44.32 9.98 44.71 9.76 45.2 9.76" fill="#fd6051"/><polygon points="46.7 9.76 46.29 9.76 45.98 9.53 45.64 9.76 45.2 9.76 45.99 9.22 46.61 9.68 46.7 9.76" fill="#fd6051"/><polygon points="48.11 9.76 48.09 9.82 47.59 9.82 47.22 10.2 46.7 9.76 48.11 9.76" fill="#fd6051"/><polygon points="49 9.76 48.74 9.76 48.58 9.04 48.36 9.76 48.11 9.76 48.62 8.04 49 9.76" fill="#fd6051"/><polygon points="50.26 9.75 49.9 9.75 49.85 9.71 49.84 9.75 49.58 9.75 49.73 9.25 50.26 9.75" fill="#fd6051"/><polygon points="50.26 9.75 50.75 9.75 50.48 9.96 50.28 9.77 50.26 9.75" fill="#fd6051"/><polygon points="51.97 9.75 53.68 9.75 53.52 9.95 52.05 9.95 51.97 9.75" fill="#fd6051"/><polygon points="54.1 9.24 54.64 9.75 53.68 9.75 54.1 9.24" fill="#fd6051"/><polyline points="56.09 9.75 55.74 9.75 55.38 9.75 54.64 9.75 54.65 9.76 55.33 9.76 55.36 9.77 55.63 9.86 55.77 9.9 55.98 9.86" fill="#fd6051"/><polygon points="51.97 9.74 51.97 9.75 51.71 9.75 51.55 9.4 51.15 9.75 50.75 9.75 50.97 9.58 51.64 8.98 51.97 9.74" fill="#fd6051"/><polyline points="54.27 9.75 54.14 9.75 54 9.75" fill="#fd6051"/><path d="M54,9.75l-.37.45H51.88l-.14-.38,0-.07H52L51.64,9l-.67.6-.22.17h.4l0,0-.67.52-.56-.54,0,0v0l-.64,2.11-.46-2.1L48.58,9l-.22.72-.09.31h-.58l-.45.47-.79-.67-.16-.11L46,9.53l-.34.23-.44.29-1,.55L43.63,10H42.26l-.39-.39-.11-.12h2.07l.25.23.24.22.39-.22.22-.13L46,8.91l.76.57.33.28h.23l.17-.19h.42L48.66,7l.59,2.71,0,.13,0-.13.29-1,.89.84.31-.25.92-.81.49,1.13H53.4l.68-.82.67.63.65,0,.15.05.23.07.07,0h0l.42-.08-.07.08-.12.12L56,9.86l-.28.28-.27-.08L55.29,10h-.74l-.28-.26" fill="#fd6051"/></g></g></g></svg>