<svg xmlns="http://www.w3.org/2000/svg" viewBox="0 0 16.6 13.9"><g id="Layer_2" data-name="Layer 2"><g id="Heart"><g id="Heart-2" data-name="Heart"><path d="M3.74,6.86H3.59" fill="#fd6051"/><path d="M15.29,1.44l-.14-.14A3.62,3.62,0,0,0,10,1.3L8.29,3.05,6.55,1.3a3.62,3.62,0,0,0-5.11,0l-.14.14a3.62,3.62,0,0,0,0,5.11l.57.57,6.42,6.42,6.39-6.38L15,6.85l.11-.12h0l.18-.18A3.62,3.62,0,0,0,15.29,1.44Z" fill="#fd6051"/><path d="M15.46,1.26l-.13-.13a3.87,3.87,0,0,0-5.47,0L8.29,2.7,6.72,1.13a3.86,3.86,0,0,0-5.46,0l-.14.13A3.88,3.88,0,0,0,1,6.61l.11.12.39.39L8.29,13.9,15,7.24,15.23,7l.11-.11.12-.12.07-.08h0a3.85,3.85,0,0,0-.08-5.39ZM8.29,13.19,2.23,7.12,2,6.87H2l-.24-.24-.25-.25a3.36,3.36,0,0,1,0-4.75l.13-.14a3.38,3.38,0,0,1,4.76,0L8.29,3.4l1.93-1.92a3.37,3.37,0,0,1,4.75,0l.14.14a3.34,3.34,0,0,1,0,4.75Z" fill="#fd6051"/></g><g id="HR_Line" data-name="HR Line"><polygon points="4.45 6.86 4.31 6.95 3.54 7.39 2.98 6.88 1.98 6.87 1.62 6.87 1.25 6.86 3.33 6.86 3.57 7.08 3.96 6.86 4.45 6.86" fill="#fff"/><polygon points="5.95 6.86 5.54 6.86 5.23 6.63 4.89 6.86 4.45 6.86 5.24 6.32 5.86 6.78 5.95 6.86" fill="#fff"/><polygon points="7.36 6.86 7.34 6.92 6.84 6.92 6.47 7.3 5.95 6.86 7.36 6.86" fill="#fff"/><polygon points="8.25 6.86 7.99 6.86 7.83 6.14 7.61 6.86 7.36 6.86 7.87 5.14 8.25 6.86" fill="#fff"/><polygon points="9.51 6.85 9.15 6.85 9.11 6.81 9.1 6.85 8.83 6.85 8.98 6.35 9.51 6.85" fill="#fff"/><polygon points="9.51 6.85 10 6.85 9.73 7.06 9.54 6.87 9.51 6.85" fill="#fff"/><polygon points="11.22 6.85 12.93 6.85 12.77 7.05 11.3 7.05 11.22 6.85" fill="#fff"/><polygon points="13.36 6.34 13.89 6.85 12.93 6.85 13.36 6.34" fill="#fff"/><polyline points="15.34 6.85 14.99 6.85 14.63 6.85 13.89 6.85 13.9 6.86 14.58 6.86 14.61 6.87 14.88 6.96 15.02 7 15.23 6.96" fill="#fff"/><polygon points="11.22 6.84 11.22 6.85 10.96 6.85 10.8 6.5 10.4 6.85 10 6.85 10.22 6.68 10.89 6.08 11.22 6.84" fill="#fff"/><polyline points="13.52 6.85 13.39 6.85 13.25 6.85" fill="#fff"/><path d="M13.25,6.85l-.37.45H11.13L11,6.92l0-.07h.26l-.33-.76-.67.6L10,6.85h.4l0,0-.67.52-.56-.54-.05,0v0L8.45,9,8,6.86l-.16-.72-.22.72-.09.31H6.94l-.45.47L5.7,7l-.16-.11-.31-.23-.34.23-.44.29-1,.55-.62-.57H1.51l-.39-.39L1,6.61H3.08l.25.23.24.22L4,6.86l.22-.13L5.24,6,6,6.58l.33.28h.23l.17-.19h.42l.76-2.53L8.5,6.85l0,.13,0-.13.29-1,.89.84.31-.25L11,5.67l.49,1.13h1.18L13.33,6l.67.63.65,0,.15,0,.23.07.07,0h0l.42-.08-.07.08-.12.12L15.23,7,15,7.24l-.27-.08-.14,0H13.8l-.28-.26" fill="#fff"/></g></g></g></svg>