<svg xmlns="http://www.w3.org/2000/svg" viewBox="0 0 106.18 73.27"><defs><style>.cls-1,.cls-5{fill:#392033;}.cls-2,.cls-3,.cls-4{fill:#fff;}.cls-2,.cls-3,.cls-6{stroke:#fff;}.cls-2,.cls-3,.cls-5,.cls-6{stroke-miterlimit:10;}.cls-3{stroke-width:0.75px;}.cls-4{font-size:59.76px;font-family:Impact;}.cls-5{stroke:#392033;}.cls-5,.cls-6{stroke-width:0.5px;}</style></defs><g id="Layer_2" data-name="Layer 2"><g id="Layer_7" data-name="Layer 7"><rect class="cls-1" y="4.8" width="106.18" height="50.12"/><rect class="cls-2" x="1.78" y="28.85" width="102.84" height="1.09"/><rect class="cls-3" x="10.48" y="22.09" width="2.89" height="15.18"/><rect class="cls-3" x="15.17" y="20.47" width="2.89" height="17.86"/><rect class="cls-3" x="5.79" y="24.68" width="2.89" height="10.54"/><rect class="cls-3" x="93.74" y="21.81" width="2.89" height="15.18" transform="translate(190.37 58.8) rotate(180)"/><rect class="cls-3" x="89.15" y="20.47" width="2.89" height="17.86" transform="translate(181.2 58.8) rotate(180)"/><rect class="cls-3" x="98.25" y="24.75" width="2.89" height="10.54" transform="translate(199.38 60.03) rotate(180)"/><text class="cls-4" transform="translate(21.06 53.51) scale(0.82 1)">LKF</text><path class="cls-5" d="M58.32,29.67l-7,7-7-7a3.62,3.62,0,0,1,0-5.11l.14-.13a3.6,3.6,0,0,1,5.11,0l1.75,1.74,1.74-1.74a3.61,3.61,0,0,1,5.12,0l.13.13A3.62,3.62,0,0,1,58.32,29.67Z"/><polyline class="cls-6" points="43.34 29.98 45.55 30 46.09 30.52 46.87 30.07 47.8 29.44 48.42 29.9 49.04 30.42 49.4 30.04 49.9 30.04 49.9 30.04 50.43 28.26 51.05 31.09 51.55 29.47 52.09 29.99 52.29 30.18 52.78 29.8 53.45 29.2 53.79 29.96 53.86 30.17 55.33 30.17 55.91 29.46 56.47 29.98 57.14 29.98 57.58 30.13 58.38 29.97"/></g></g></svg>