<svg xmlns="http://www.w3.org/2000/svg" xmlns:xlink="http://www.w3.org/1999/xlink" viewBox="0 0 103.84 74.27"><defs><style>.cls-1,.cls-2,.cls-3{fill:#392033;}.cls-1,.cls-2{stroke:#231f20;}.cls-1,.cls-2,.cls-3,.cls-5,.cls-6{stroke-miterlimit:10;}.cls-2{stroke-width:0.75px;}.cls-3{font-size:59.76px;stroke:#000;font-family:Impact;}.cls-4{fill:url(#linear-gradient);}.cls-5,.cls-6{stroke:#392033;stroke-width:0.5px;}.cls-5{fill:url(#radial-gradient);}.cls-6{fill:none;}</style><linearGradient id="linear-gradient" x1="21.78" y1="30.39" x2="83.46" y2="30.39" gradientUnits="userSpaceOnUse"><stop offset="0" stop-color="#fd6051"/><stop offset="1" stop-color="#392033"/></linearGradient><radialGradient id="radial-gradient" cx="50.04" cy="30.52" r="7.38" gradientUnits="userSpaceOnUse"><stop offset="0" stop-color="#f48668"/><stop offset="1" stop-color="#f06138"/></radialGradient></defs><g id="Layer_2" data-name="Layer 2"><g id="Layer_5" data-name="Layer 5"><rect class="cls-1" x="0.5" y="29.35" width="102.84" height="1.09"/><rect class="cls-2" x="8.37" y="22.31" width="2.89" height="15.18"/><rect class="cls-2" x="12.89" y="20.97" width="2.89" height="17.86"/><rect class="cls-2" x="3.85" y="24.63" width="2.89" height="10.54"/><rect class="cls-2" x="93.18" y="22.31" width="2.89" height="15.18" transform="translate(189.25 59.8) rotate(180)"/><rect class="cls-2" x="88.66" y="20.97" width="2.89" height="17.86" transform="translate(180.22 59.8) rotate(180)"/><rect class="cls-2" x="97.7" y="24.63" width="2.89" height="10.54" transform="translate(198.28 59.8) rotate(180)"/><text class="cls-3" transform="translate(19.78 54.01) scale(0.82 1)">LKF</text><path class="cls-4" d="M31.8,6.77V44.56h6.09V54H21.78V6.77Z"/><path class="cls-4" d="M64.22,6.77,58.47,28.1,64.76,54H54.41L50.35,33.76V54h-10V6.77h10V25.13L54.81,6.77Z"/><path class="cls-4" d="M66.49,6.77h17v9.46H76.51v9H82.7v9H76.51V54h-10Z"/><path class="cls-5" d="M57,30.17l-7,7-7-7a3.62,3.62,0,0,1,0-5.11l.14-.13a3.6,3.6,0,0,1,5.11,0L50,26.67l1.75-1.74a3.6,3.6,0,0,1,5.11,0l.14.13A3.62,3.62,0,0,1,57,30.17Z"/><polyline class="cls-6" points="43.05 30.34 45.09 30.36 45.59 30.84 46.31 30.43 47.16 29.85 47.73 30.27 48.3 30.75 48.64 30.4 49.1 30.4 49.1 30.4 49.59 28.76 50.16 31.37 50.62 29.88 51.12 30.35 51.3 30.53 51.75 30.18 52.37 29.63 52.68 30.32 52.75 30.52 54.1 30.52 54.64 29.87 55.15 30.34 55.77 30.35 56.17 30.48 56.91 30.34"/></g></g></svg>