<svg xmlns="http://www.w3.org/2000/svg" viewBox="0 0 102 47.24">
	<g id="Layer_2" data-name="Layer 2">
		<g id="LogoWhite">
			<g id="Barbell">
				<rect x="0.5" y="22.62" width="101" height="1.09" fill="#fff" stroke="#fff" stroke-miterlimit="10"/>
				<rect x="7.91" y="15.54" width="2.89" height="15.18" fill="#fff" stroke="#fff" stroke-miterlimit="10" stroke-width="0.5"/>
				<rect x="11.89" y="14.2" width="2.89" height="17.86" fill="#fff" stroke="#fff" stroke-miterlimit="10" stroke-width="0.5"/>
				<rect x="4.51" y="17.86" width="2.46" height="10.54" fill="#fff" stroke="#fff" stroke-miterlimit="10" stroke-width="0.5"/>
				<rect x="91.64" y="15.54" width="2.89" height="15.18" transform="translate(186.16 46.26) rotate(180)" fill="#fff" stroke="#fff" stroke-miterlimit="10" stroke-width="0.5"/>
				<rect x="87.66" y="14.2" width="2.89" height="17.86" transform="translate(178.22 46.26) rotate(180)" fill="#fff" stroke="#fff" stroke-miterlimit="10" stroke-width="0.5"/>
				<rect x="95.48" y="17.93" width="2.44" height="10.54" transform="translate(193.4 46.4) rotate(180)" fill="#fff" stroke="#fff" stroke-miterlimit="10" stroke-width="0.5"/>
			</g>
			<g id="Letters">
				<path d="M30.8,0V37.79h6.09v9.45H20.78V0Z" fill="#fff"/>
				<path d="M63.22,0,57.47,21.33l6.29,25.91H53.41L49.35,27V47.24h-10V0h10V18.35L53.81,0Z" fill="#fff"/>
				<path d="M65.49,0h17V9.45H75.51v9H81.7v9H75.51V47.24h-10Z" fill="#fff"/>
			</g>
			<g id="Heart">
				<path d="M44.49,23.71h-.15" fill="#21121d"/>
				<path d="M56,18.29l-.14-.14a3.62,3.62,0,0,0-5.11,0L49,19.9,47.3,18.15a3.62,3.62,0,0,0-5.11,0l-.14.14a3.62,3.62,0,0,0,0,5.11l.57.57L49,30.39,55.43,24l.31-.31.11-.12h0L56,23.4A3.62,3.62,0,0,0,56,18.29Z" fill="#21121d"/>
				<path d="M56.21,18.11,56.08,18a3.87,3.87,0,0,0-5.47,0L49,19.55,47.47,18A3.86,3.86,0,0,0,42,18l-.14.13a3.88,3.88,0,0,0-.11,5.35l.11.12.39.39L49,30.75l6.66-6.66.28-.28.11-.11.12-.12.07-.08h0a3.85,3.85,0,0,0-.08-5.39ZM49,30,43,24l-.25-.25h0l-.24-.24-.25-.25a3.36,3.36,0,0,1,0-4.75l.13-.14a3.38,3.38,0,0,1,4.76,0L49,20.25,51,18.33a3.37,3.37,0,0,1,4.75,0l.14.14a3.34,3.34,0,0,1,0,4.75Z" fill="#21121d"/>
			</g>
			<g id="HR_Line" data-name="HR Line">
				<polygon points="45.2 23.71 45.06 23.8 44.28 24.24 43.73 23.73 42.73 23.72 42.37 23.72 42 23.71 44.08 23.71 44.32 23.93 44.71 23.71 45.2 23.71" fill="#fff"/>
				<polygon points="46.7 23.71 46.29 23.71 45.98 23.48 45.64 23.71 45.2 23.71 45.99 23.17 46.61 23.63 46.7 23.71" fill="#fff"/>
				<polygon points="48.11 23.71 48.09 23.77 47.59 23.77 47.22 24.15 46.7 23.71 48.11 23.71" fill="#fff"/>
				<polygon points="49 23.71 48.74 23.71 48.58 22.99 48.36 23.71 48.11 23.71 48.62 21.99 49 23.71" fill="#fff"/>
				<polygon points="50.26 23.7 49.9 23.7 49.85 23.66 49.84 23.7 49.58 23.7 49.73 23.2 50.26 23.7" fill="#fff"/>
				<polygon points="50.26 23.7 50.75 23.7 50.48 23.91 50.28 23.72 50.26 23.7" fill="#fff"/>
				<polygon points="51.97 23.7 53.68 23.7 53.52 23.9 52.05 23.9 51.97 23.7" fill="#fff"/>
				<polygon points="54.1 23.19 54.64 23.7 53.68 23.7 54.1 23.19" fill="#fff"/>
				<polyline points="56.09 23.7 55.74 23.7 55.38 23.7 54.64 23.7 54.65 23.71 55.33 23.71 55.36 23.72 55.63 23.81 55.77 23.85 55.98 23.81" fill="#fff"/>
				<polygon points="51.97 23.69 51.97 23.7 51.71 23.7 51.55 23.35 51.15 23.7 50.75 23.7 50.97 23.53 51.64 22.93 51.97 23.69" fill="#fff"/>
				<polyline points="54.27 23.7 54.14 23.7 54 23.7" fill="#fff"/>
				<path d="M54,23.7l-.37.45H51.88l-.14-.38,0-.07H52l-.33-.76-.67.6-.22.17h.4l0,0-.67.52-.56-.54,0,0v0l-.64,2.11-.46-2.1L48.58,23l-.22.72-.09.31h-.58l-.45.47-.79-.67-.16-.11L46,23.48l-.34.23L45.2,24l-1,.55L43.63,24H42.26l-.39-.39-.11-.12h2.07l.25.23.24.22.39-.22.22-.13L46,22.86l.76.57.33.28h.23l.17-.19h.42L48.66,21l.59,2.71,0,.13,0-.13.29-1,.89.84.31-.25.92-.81.49,1.13H53.4l.68-.82.67.63.65,0,.15.05.23.07.07,0h0l.42-.08-.07.08-.12.12-.11.11-.28.28L55.43,24,55.29,24h-.74l-.28-.26" fill="#fff"/>
			</g>
		</g>
	</g>
</svg>